<svg width="76" height="76" viewBox="0 0 76 76" fill="none" xmlns="http://www.w3.org/2000/svg">
<path d="M35.0092 0.0195347C34.8316 0.0382266 34.2615 0.103648 33.7474 0.150378C26.4385 0.916748 19.2418 4.01027 13.3723 8.92625C12.2881 9.82346 9.8207 12.2908 8.92345 13.3749C4.06333 19.1788 1.22204 25.6929 0.175244 33.4034C-0.0584148 35.1137 -0.0584148 40.8895 0.175244 42.5998C1.22204 50.3102 4.06333 56.8244 8.92345 62.6282C9.8207 63.7124 12.2881 66.1797 13.3723 67.0769C19.1764 71.9368 25.6908 74.778 33.4016 75.8248C35.112 76.0584 40.888 76.0584 42.5984 75.8248C50.3092 74.778 56.8236 71.9368 62.6277 67.0769C63.7119 66.1797 66.1793 63.7124 67.0766 62.6282C71.9367 56.8244 74.778 50.3102 75.8248 42.5998C76.0584 40.8895 76.0584 35.1137 75.8248 33.4034C74.778 25.6929 71.9367 19.1788 67.0766 13.3749C66.1793 12.2908 63.7119 9.82346 62.6277 8.92625C56.8423 4.08503 50.2624 1.20647 42.6545 0.187762C41.832 0.0756105 40.6357 0.0288807 38.4206 0.0101887C36.7289 -0.00850325 35.1867 0.000842727 35.0092 0.0195347V0.0195347ZM35.4765 4.057C35.4765 5.15048 35.5513 7.52435 35.6541 9.77673C35.7101 10.8796 35.7756 12.459 35.8036 13.2815C35.9064 16.1974 36.2148 23.8518 36.2616 24.534L36.3083 25.2163L35.8877 25.1696C35.6541 25.1509 35.4391 25.0948 35.4017 25.0668C35.3737 25.0294 35.3082 24.3845 35.2709 23.6275C35.1026 20.3003 34.5512 7.39351 34.4951 5.50562L34.439 3.43082L34.7007 3.39343C34.8409 3.37474 35.0746 3.3467 35.2241 3.33736L35.4765 3.32801V4.057ZM44.421 3.83269C44.4303 3.84204 44.4583 6.66452 44.4864 10.1038C44.5238 13.5525 44.5705 16.646 44.5985 16.9825C44.6266 17.3283 44.6172 17.6274 44.5705 17.646C44.5331 17.6741 44.2995 17.6741 44.0658 17.646L43.6359 17.6087L43.5704 14.889C43.533 13.3843 43.4863 11.7207 43.4676 11.1786C43.3929 9.52439 43.3274 3.90746 43.3835 3.76727C43.4209 3.66447 43.5237 3.65512 43.9163 3.72054C44.1873 3.77662 44.4116 3.82335 44.421 3.83269V3.83269ZM22.8028 6.9636C22.8589 7.04771 23.2982 12.1973 23.8403 18.9358C24.0178 21.2256 24.1954 23.3191 24.2235 23.5807C24.2702 24.0574 24.2608 24.0761 23.9618 24.263C23.7935 24.3658 23.6253 24.4499 23.5879 24.4499C23.5599 24.4499 23.5038 24.2069 23.4757 23.9079C23.3449 22.6929 22.8402 16.8236 22.485 12.5805C22.2794 10.0852 22.0925 7.85146 22.0644 7.60847C22.0177 7.19724 22.0271 7.15986 22.2701 7.02902C22.5691 6.87014 22.7374 6.8421 22.8028 6.9636V6.9636ZM48.5334 8.84214C48.7951 8.9356 48.8231 8.98233 48.8792 9.51505C48.9726 10.4496 48.9446 14.917 48.8418 14.917C48.5707 14.917 48.01 14.5993 47.9632 14.4217C47.9352 14.3095 47.9072 12.9824 47.9072 11.4777C47.9072 8.44026 47.8698 8.61783 48.5334 8.84214V8.84214ZM31.2706 9.2814C31.2706 9.53374 31.336 10.9263 31.4108 12.3936C31.4856 13.8609 31.5697 15.7208 31.6071 16.5245C31.6725 18.1507 31.6912 18.0947 31.065 18.132C30.7566 18.1414 30.7566 18.1414 30.7379 17.6741C30.7192 17.4124 30.6724 16.5993 30.6164 15.8516C30.5696 15.1039 30.4575 13.4871 30.3827 12.2534C30.3079 11.0197 30.2145 9.79543 30.1864 9.53374C30.1304 9.06644 30.1397 9.04775 30.3921 8.95429C30.5416 8.89821 30.8033 8.85148 30.9715 8.85148C31.2706 8.84214 31.2706 8.84214 31.2706 9.2814V9.2814ZM57.1974 10.5618L57.5152 10.6926L57.5806 11.945C57.6087 12.6273 57.6274 14.1039 57.6087 15.2161L57.5806 17.2535L57.1881 17.0573L56.7955 16.8703L56.7675 13.7675C56.7488 12.0572 56.7582 10.6085 56.7769 10.5431C56.8142 10.4029 56.8142 10.4029 57.1974 10.5618V10.5618ZM40.131 11.7861C40.187 11.8422 40.3179 16.375 40.3272 18.6741L40.3366 20.0573L39.8973 19.9919C39.645 19.9638 39.4393 19.9358 39.43 19.9265C39.402 19.9078 39.1216 12.9824 39.1216 12.3095V11.6179L39.5982 11.674C39.8693 11.7114 40.1029 11.7581 40.131 11.7861V11.7861ZM61.6557 12.4497C61.7678 12.5805 61.7865 14.6273 61.8145 25.9172C61.8426 38.8801 61.8426 39.2166 61.6744 39.2166C61.5715 39.2166 61.4313 39.1605 61.3472 39.0951C61.207 38.9923 61.1883 37.8614 61.1416 26.7864C61.1042 20.076 61.0575 13.9824 61.0295 13.2441L60.9734 11.8983L61.2444 12.0945C61.4033 12.2067 61.5809 12.3656 61.6557 12.4497V12.4497ZM53.272 14.3656C53.3187 14.403 53.3654 14.9357 53.3748 15.5432C53.4215 17.6087 53.4309 30.2725 53.3841 30.3098C53.3654 30.3285 53.1972 30.2818 53.0103 30.207L52.6738 30.0669V14.1693L52.9355 14.2254C53.0757 14.2628 53.2252 14.3189 53.272 14.3656V14.3656ZM27.476 14.889C27.504 15.1413 27.5508 15.7114 27.5788 16.1787C27.6068 16.6367 27.6723 17.6834 27.7283 18.4965C27.8405 20.1414 27.8218 20.2442 27.2891 20.2442C27.0087 20.2442 26.9713 20.2162 26.9339 19.9358C26.8404 19.3844 26.5133 14.7862 26.56 14.7114C26.6068 14.646 27.0928 14.4778 27.3171 14.4591C27.3732 14.4497 27.4479 14.646 27.476 14.889V14.889ZM12.0171 17.2722C12.1199 18.2629 12.3255 20.3377 12.4751 21.8798C12.634 23.4219 12.7648 24.7303 12.7648 24.7864C12.7648 24.8985 12.0451 25.2537 11.9704 25.1789C11.9236 25.1322 10.989 16.861 10.989 16.4871C10.989 16.2628 11.7087 15.3189 11.8021 15.4217C11.8302 15.4404 11.9236 16.2722 12.0171 17.2722ZM48.6642 18.2535L48.9353 18.4124L48.9446 20.4311C48.9539 21.534 48.9726 22.7676 48.9726 23.1695C48.9913 24.0107 48.8885 24.1508 48.3838 23.9733L48.0941 23.8705V23.0667C48.0941 22.6181 48.066 21.319 48.0287 20.1695L47.9726 18.0947H48.1875C48.2997 18.0947 48.5147 18.1694 48.6642 18.2535V18.2535ZM16.1202 21.8798C16.2884 23.6742 16.5594 26.7023 16.737 28.6089L17.0548 32.0669L16.6903 32.4314L16.3351 32.7959L16.2697 32.0575C16.2323 31.6463 16.0454 29.7397 15.8491 27.8145C15.6528 25.8892 15.3724 23.0948 15.2322 21.6087L14.9705 18.9171L15.3351 18.5806C15.6622 18.2722 15.6996 18.2629 15.765 18.4311C15.8024 18.5246 15.9613 20.076 16.1202 21.8798ZM9.11972 23.0106C9.32534 24.8518 9.86743 29.7491 10.3347 33.8894C10.8021 38.0296 11.2413 42.0204 11.3255 42.768C11.4002 43.5157 11.5311 44.6466 11.6059 45.2914C11.7367 46.3849 11.7367 46.4597 11.5872 46.5718C11.3628 46.7401 11.2694 46.7214 11.2694 46.5251C11.2694 46.441 11.1853 45.7307 11.0825 44.9643C10.9142 43.6839 10.6338 41.5157 10.0076 36.6464C9.87678 35.6651 9.62442 33.7118 9.44684 32.3005C9.25991 30.8893 8.98887 28.7865 8.83933 27.6276C8.68979 26.4687 8.43743 24.4873 8.27855 23.2069C8.11031 21.9359 8.0075 20.805 8.03554 20.6835C8.10097 20.4311 8.6524 19.5526 8.70848 19.6087C8.72717 19.6367 8.9141 21.1601 9.11972 23.0106ZM6.25973 27.0388C6.39993 28.1603 6.66162 30.207 6.83921 31.5996C7.01679 32.9828 7.2411 34.7118 7.34391 35.4314L7.52149 36.7399L7.32522 36.9081C7.21306 37.0016 7.1009 37.039 7.06352 37.0016C7.02613 36.9642 6.95136 36.5903 6.89528 36.1791C6.83921 35.7679 6.49339 33.366 6.11953 30.8519L5.45594 26.2724L5.67091 25.6369C5.78307 25.2911 5.90457 25.0107 5.93261 25.0107C5.96999 25.0107 6.11019 25.9266 6.25973 27.0388V27.0388ZM57.5713 25.8144C57.7021 25.9453 57.7208 26.5247 57.7208 30.8145V35.6651H57.4591C56.889 35.6651 56.8984 35.8053 56.861 30.4968L56.8329 25.6649H57.132C57.2909 25.6649 57.4965 25.7303 57.5713 25.8144V25.8144ZM37.1121 27.4874C39.2244 27.8051 41.0656 28.3939 42.8882 29.3285C44.0658 29.936 44.6266 30.3566 45.9351 31.6089C47.8791 33.4688 49.0754 35.095 50.197 37.3941C51.8326 40.74 52.4682 43.7026 53.272 51.6467C53.6365 55.2075 54.1131 61.6656 54.216 64.3105C54.244 65.0769 54.3094 66.3386 54.3655 67.1143C54.4683 68.7592 54.5898 68.5349 53.1411 69.2358C51.1316 70.2078 49.197 70.8807 46.6454 71.5069C43.5237 72.2733 41.5049 72.5163 38.4206 72.5256L36.1775 72.535L36.1961 71.4602C36.1961 70.8714 36.2522 69.4975 36.3083 68.4227C36.5887 63.217 36.5326 56.6468 36.1681 53.0019C35.9625 50.9084 35.5606 48.3663 35.3363 47.8055C35.2896 47.684 35.5045 47.5812 36.4298 47.2635C38.1215 46.6747 39.5889 45.9363 39.8132 45.5718C40.2151 44.8802 39.4954 43.8896 38.5795 43.8896C38.4206 43.8896 37.9439 44.0578 37.5046 44.254C35.4111 45.2167 31.2145 46.3475 28.7938 46.5999C27.1208 46.7775 24.5225 46.6747 22.7187 46.3475C21.7373 46.17 19.9802 45.5064 18.5128 44.7494C16.8211 43.8709 15.7837 42.7026 15.4753 41.3194C15.307 40.5717 15.3537 39.0764 15.5687 38.2352C15.8024 37.31 16.4566 35.9642 17.0548 35.1791C19.7185 31.6744 25.2142 28.6369 30.85 27.5715C32.6445 27.235 35.1867 27.1976 37.1121 27.4874ZM65.9456 27.7771C66.2821 27.9173 66.3195 27.9547 66.3195 28.2724C66.3382 30.8239 66.2821 36.6558 66.2354 36.8988C66.226 36.9829 65.74 36.9922 65.5344 36.9175C65.4036 36.8707 65.3849 36.366 65.3849 32.2445C65.3849 29.2911 65.4222 27.6276 65.4783 27.6276C65.5251 27.6276 65.74 27.693 65.9456 27.7771V27.7771ZM70.03 32.908L70.3665 33.0482L70.301 40.7867C70.2263 50.6467 70.2169 50.9364 69.8618 51.7869C69.2823 53.1795 69.3103 53.4598 69.3664 47.3476C69.3851 44.2914 69.4318 41.1979 69.4505 40.4783C69.4692 39.7586 69.4879 37.7306 69.4973 35.9642C69.4973 33.8333 69.5253 32.7678 69.5907 32.7678C69.6468 32.7678 69.8431 32.8333 70.03 32.908ZM13.8209 35.2352C13.877 35.9922 13.8583 36.067 13.5873 36.6651L13.2882 37.3006L13.176 36.366C12.9985 34.8707 12.9985 34.8053 13.3536 34.581C13.5125 34.4688 13.6807 34.394 13.7088 34.4127C13.7368 34.4314 13.7929 34.8053 13.8209 35.2352V35.2352ZM8.04489 40.8708C8.129 41.6372 8.78325 46.7214 9.11972 49.2168C9.62442 53.0766 9.66181 53.6281 9.4375 53.3944C9.40946 53.3664 9.19449 52.0673 8.97018 50.5065C7.51214 40.4315 7.52149 40.497 7.64299 40.4222C7.89535 40.254 7.97946 40.3474 8.04489 40.8708V40.8708ZM14.7743 45.1513C14.8304 45.3849 15.1014 47.9177 15.1014 48.2261C15.1014 48.4878 14.7649 48.7308 14.6154 48.5812C14.5687 48.5345 14.4471 47.7401 14.3537 46.8242C14.2509 45.8989 14.1481 44.9363 14.12 44.684L14.0639 44.2167L14.3911 44.5905C14.578 44.7961 14.7462 45.0485 14.7743 45.1513V45.1513ZM22.3168 48.6747C22.4196 48.7682 22.485 49.142 22.5691 50.1514C22.7093 51.9738 22.728 51.8336 22.3448 51.8336C21.9523 51.8336 21.9616 51.8617 21.8308 50.2168C21.6999 48.5438 21.6999 48.5625 21.9523 48.5625C22.0738 48.5625 22.2327 48.6186 22.3168 48.6747ZM29.7191 48.8149C29.7378 48.9083 29.7845 49.4691 29.8219 50.0579C29.85 50.6467 29.9341 51.9738 30.0089 53.0019C30.2706 56.7777 30.2799 57.2543 30.121 57.2543C29.9434 57.2543 29.9247 57.1141 29.7191 54.4505C29.6443 53.3477 29.5041 51.6093 29.4107 50.5906C29.3266 49.5719 29.2705 48.7214 29.2985 48.7027C29.4013 48.5906 29.6724 48.6747 29.7191 48.8149ZM12.1479 50.6093C12.204 50.6934 12.5592 53.6841 12.9985 57.7683C13.1293 59.002 13.2602 60.1889 13.2882 60.4132L13.3349 60.8151L13.1013 60.6656C12.9237 60.5441 12.8583 60.4226 12.8583 60.2076C12.8583 59.6188 12.4564 55.7402 12.1479 53.3664C11.9704 52.0205 11.8302 50.8336 11.8302 50.7215C11.8302 50.5252 12.0545 50.4504 12.1479 50.6093V50.6093ZM66.0858 54.5159L66.0204 58.4225L65.7868 58.7683C65.254 59.5534 65.2821 59.7029 65.3101 55.329L65.3288 51.3196L65.6746 50.9645C65.8615 50.7775 66.0485 50.6187 66.0858 50.6187C66.1139 50.6187 66.1139 52.3757 66.0858 54.5159V54.5159ZM57.4404 60.7123C57.4872 66.1423 57.4778 66.5629 57.3283 66.7311C57.2348 66.8339 57.1507 66.8993 57.1227 66.8713C57.0572 66.7965 56.9638 54.9552 57.0386 54.8898C57.0759 54.8524 57.1694 54.8337 57.2535 54.843C57.375 54.8711 57.4031 55.5346 57.4404 60.7123V60.7123ZM26.9152 56.9926C26.9806 57.5721 27.2143 60.3478 27.3078 61.6563C27.3638 62.5348 27.3638 62.5628 27.1582 62.6282C27.0461 62.6656 26.9152 62.6563 26.8778 62.6095C26.8124 62.5441 26.6068 60.4693 26.3544 57.273L26.289 56.5066H26.5787C26.8498 56.5066 26.8685 56.5253 26.9152 56.9926V56.9926ZM19.569 60.2637C19.6344 60.3291 19.6811 60.5628 19.6811 60.7964C19.6811 61.0394 19.7933 62.3011 19.9148 63.6096C20.2699 67.1891 20.298 67.6751 20.1391 67.5816C19.8961 67.4414 19.6811 67.2265 19.7278 67.1704C19.7465 67.133 19.7092 66.6657 19.6344 66.133C19.569 65.5909 19.4848 64.7124 19.4475 64.1703C19.4101 63.6283 19.326 62.6376 19.2512 61.974C19.0736 60.3385 19.0829 60.1515 19.2886 60.1515C19.382 60.1515 19.5035 60.1983 19.569 60.2637V60.2637ZM23.9898 66.5535C24.0178 66.7592 24.0739 67.5255 24.1113 68.2545C24.1767 69.6564 24.1487 69.7592 23.7655 69.4695C23.6533 69.3854 23.5786 69.0302 23.4664 67.9648C23.2701 66.0395 23.2608 66.1143 23.6253 66.1517C23.8963 66.1797 23.9337 66.2171 23.9898 66.5535Z" fill="#eee"/>
<path d="M20.6532 31.9641C19.6812 32.3847 19.6064 33.7025 20.5223 34.1698C21.1859 34.5062 21.8589 34.3473 22.2047 33.7679C22.8589 32.7024 21.7935 31.4688 20.6532 31.9641ZM26.99 32.8613C26.0928 33.4127 26.0928 34.7399 26.99 35.2913C27.8779 35.824 29.0275 35.123 29.0275 34.0576C29.0275 33.0295 27.8499 32.3379 26.99 32.8613Z" fill="#eee"/>
</svg>
